<svg xmlns="http://www.w3.org/2000/svg" xmlns:xlink="http://www.w3.org/1999/xlink" width="377" zoomAndPan="magnify" viewBox="0 0 282.75 284.250005" height="379" preserveAspectRatio="xMidYMid meet" version="1.0"><defs><clipPath id="194458ca84"><path d="M 0.246094 0 L 282.253906 0 L 282.253906 283.503906 L 0.246094 283.503906 Z M 0.246094 0 " clip-rule="nonzero"/></clipPath><clipPath id="5df76761ad"><path d="M 0.246094 0 L 282.140625 0 L 282.140625 283.503906 L 0.246094 283.503906 Z M 0.246094 0 " clip-rule="nonzero"/></clipPath><clipPath id="84df6643e8"><path d="M 75.050781 0 L 207.339844 0 C 248.652344 0 282.140625 33.492188 282.140625 74.800781 L 282.140625 208.210938 C 282.140625 249.523438 248.652344 283.015625 207.339844 283.015625 L 75.050781 283.015625 C 33.738281 283.015625 0.246094 249.523438 0.246094 208.210938 L 0.246094 74.800781 C 0.246094 33.492188 33.738281 0 75.050781 0 Z M 75.050781 0 " clip-rule="nonzero"/></clipPath><clipPath id="aff44d7eac"><path d="M 0.246094 0 L 282.140625 0 L 282.140625 283 L 0.246094 283 Z M 0.246094 0 " clip-rule="nonzero"/></clipPath><clipPath id="60125f1f41"><path d="M 75.050781 0 L 207.339844 0 C 248.652344 0 282.140625 33.492188 282.140625 74.800781 L 282.140625 208.210938 C 282.140625 249.523438 248.652344 283.015625 207.339844 283.015625 L 75.050781 283.015625 C 33.738281 283.015625 0.246094 249.523438 0.246094 208.210938 L 0.246094 74.800781 C 0.246094 33.492188 33.738281 0 75.050781 0 Z M 75.050781 0 " clip-rule="nonzero"/></clipPath><clipPath id="96fa866700"><rect x="0" width="283" y="0" height="284"/></clipPath><clipPath id="e16980061b"><rect x="0" width="283" y="0" height="284"/></clipPath></defs><g clip-path="url(#194458ca84)"><g transform="matrix(1, 0, 0, 1, 0.000000000000000028, -0.000000000000017425)"><g clip-path="url(#e16980061b)"><g clip-path="url(#5df76761ad)"><g clip-path="url(#84df6643e8)"><g transform="matrix(1, 0, 0, 1, 0.000000000000000028, -0.000000000000017425)"><g clip-path="url(#96fa866700)"><g clip-path="url(#aff44d7eac)"><g clip-path="url(#60125f1f41)"><path fill="#000000" d="M 0.246094 0 L 282.140625 0 L 282.140625 282.996094 L 0.246094 282.996094 Z M 0.246094 0 " fill-opacity="1" fill-rule="nonzero"/></g></g></g></g></g></g><path fill="#ffffff" d="M 123.238281 66.667969 C 128.621094 66.011719 133.980469 64.664062 139.441406 65.054688 C 145.070312 69.980469 145.503906 78.648438 151.652344 83.171875 C 153.476562 84.792969 156.09375 84.539062 158.359375 84.421875 C 163.367188 83.664062 168.367188 82.886719 173.382812 82.222656 C 184.578125 81.125 195.609375 78.816406 206.792969 77.648438 C 215.277344 76.621094 223.707031 75.203125 232.171875 73.980469 C 232.191406 84.148438 232.132812 94.3125 232.203125 104.488281 C 225.019531 105.75 217.792969 106.855469 210.53125 107.582031 C 200.796875 108.8125 191.15625 110.675781 181.394531 111.683594 C 174.359375 112.660156 167.308594 113.597656 160.304688 114.808594 C 156.941406 115.460938 153.113281 115.191406 150.484375 112.742188 C 145.355469 107.914062 144.800781 99.925781 139.300781 95.390625 C 132.277344 94.980469 125.4375 97.0625 118.503906 97.839844 C 108.195312 99.179688 97.878906 100.410156 87.632812 102.210938 C 78.960938 103.410156 72.460938 113.921875 76.339844 122.089844 C 78.796875 126.574219 84.148438 129.132812 89.195312 128.054688 C 103.835938 125.535156 118.636719 124.15625 133.273438 121.636719 C 135.300781 121.285156 137.363281 121.4375 139.410156 121.535156 C 145.527344 126.785156 145.707031 136.742188 153.285156 140.648438 C 160.457031 141.527344 167.550781 139.632812 174.613281 138.683594 C 182.097656 137.535156 189.625 136.820312 197.101562 135.671875 C 208.09375 133.917969 220.082031 136.933594 228.273438 144.640625 C 237.671875 153.164062 241.976562 166.714844 239.808594 179.136719 C 236.695312 201.03125 217.984375 220.09375 195.832031 222.582031 C 186.28125 223.617188 176.847656 225.480469 167.308594 226.589844 C 162.894531 227.265625 158.453125 227.839844 153.980469 227.941406 C 146.007812 224.464844 145.554688 214.582031 139.953125 208.878906 C 135.972656 208.253906 131.984375 208.929688 128.046875 209.484375 C 122.3125 210.289062 116.539062 210.882812 110.828125 211.839844 C 100.085938 213.695312 89.195312 214.511719 78.464844 216.425781 C 69.972656 217.816406 61.386719 218.621094 52.875 219.890625 C 52.925781 209.652344 52.765625 199.417969 52.964844 189.179688 C 55.230469 189 57.488281 188.777344 59.757812 188.527344 C 69.730469 187.117188 79.695312 185.542969 89.679688 184.195312 C 101.597656 182.953125 113.367188 180.507812 125.304688 179.398438 C 130.140625 179.105469 135.21875 176.730469 139.914062 178.8125 C 145.203125 183.289062 145.546875 191.277344 150.867188 195.789062 C 152.910156 197.511719 155.8125 197.050781 158.28125 197.605469 C 168.09375 196.183594 177.917969 194.703125 187.742188 193.25 C 192.816406 192.476562 198.449219 192.789062 202.832031 189.683594 C 208.050781 186.371094 211.46875 179.429688 209.3125 173.382812 C 208.011719 168.871094 203.304688 165.675781 198.652344 165.917969 C 185.796875 167.257812 173.050781 169.464844 160.246094 171.167969 C 157.070312 171.984375 153.476562 171.609375 150.855469 169.523438 C 145.292969 165.183594 145.253906 156.839844 139.652344 152.558594 C 136.597656 151.015625 133.152344 152.144531 129.988281 152.597656 C 126.101562 153.355469 122.132812 153.535156 118.253906 154.3125 C 104.359375 155.339844 90.714844 159.601562 76.703125 158.625 C 65.890625 157.285156 55.875 150.816406 50.285156 141.433594 C 43.855469 130.753906 43.535156 117.214844 47.554688 105.617188 C 52.742188 90.726562 65.125 78.527344 80.058594 73.476562 C 94.222656 69.902344 108.890625 69.265625 123.238281 66.667969 Z M 123.238281 66.667969 " fill-opacity="1" fill-rule="nonzero"/></g></g></g></svg>